<?xml version="1.0" encoding="UTF-8" standalone="no"?>
<!-- Created with Inkscape (http://www.inkscape.org/) -->
<svg
   xmlns:dc="http://purl.org/dc/elements/1.1/"
   xmlns:cc="http://web.resource.org/cc/"
   xmlns:rdf="http://www.w3.org/1999/02/22-rdf-syntax-ns#"
   xmlns:svg="http://www.w3.org/2000/svg"
   xmlns="http://www.w3.org/2000/svg"
   xmlns:sodipodi="http://sodipodi.sourceforge.net/DTD/sodipodi-0.dtd"
   xmlns:inkscape="http://www.inkscape.org/namespaces/inkscape"
   width="851.9173"
   height="143.89369"
   id="svg14588"
   sodipodi:version="0.32"
   inkscape:version="0.44"
   version="1.0"
   sodipodi:docbase="C:\Dokumente und Einstellungen\Andreas\Desktop\Logos"
   sodipodi:docname="XBOX360.svg">
  <defs
     id="defs14590" />
  <sodipodi:namedview
     id="base"
     pagecolor="#ffffff"
     bordercolor="#666666"
     borderopacity="1.0"
     inkscape:pageopacity="0.0"
     inkscape:pageshadow="2"
     inkscape:zoom="0.35"
     inkscape:cx="350"
     inkscape:cy="291.42857"
     inkscape:document-units="px"
     inkscape:current-layer="layer1"
     inkscape:window-width="925"
     inkscape:window-height="574"
     inkscape:window-x="-12"
     inkscape:window-y="389"
     width="240.43mm"
     height="40.61mm"
     units="mm" />
  <metadata
     id="metadata14593">
    <rdf:RDF>
      <cc:Work
         rdf:about="">
        <dc:format>image/svg+xml</dc:format>
        <dc:type
           rdf:resource="http://purl.org/dc/dcmitype/StillImage" />
      </cc:Work>
    </rdf:RDF>
  </metadata>
  <g
     inkscape:label="Ebene 1"
     inkscape:groupmode="layer"
     id="layer1"
     transform="translate(392.5274,-122.0272)">
    <path
       style="fill:#9da0a3;fill-rule:nonzero;stroke:none;fill-opacity:1"
       d="M 402.43625,236.7314 L 394.78737,236.7314 L 394.78737,232.04368 L 415.65798,232.04368 L 415.65798,236.7314 L 408.00905,236.7314 L 408.00905,257.4381 L 402.43625,257.4381 L 402.43625,236.7314"
       class="ps02"
       id="path6955" />
    <path
       style="fill:#9da0a3;fill-rule:nonzero;stroke:none;fill-opacity:1"
       d="M 421.34005,232.04368 L 429.31672,232.04368 L 435.21735,249.50508 L 435.21735,249.50508 L 440.89933,232.04368 L 448.76682,232.04368 L 448.76682,257.4381 L 443.52191,257.4381 L 443.52191,239.43035 L 443.41263,239.43035 L 437.18421,257.4381 L 432.92266,257.4381 L 426.69424,239.61614 L 426.58497,239.61614 L 426.58497,257.4381 L 421.34005,257.4381 L 421.34005,232.04368"
       class="ps02"
       id="path6957" />
    <path
       style="fill:#9da0a3;fill-rule:nonzero;stroke:none;fill-opacity:1"
       d="M 343.53972,249.23189 C 335.01661,249.23189 327.80483,246.42366 322.34132,240.94921 C 310.21227,228.8312 308.46401,206.38713 308.46401,194.09422 C 308.46401,177.49614 311.85139,138.95651 343.53972,138.95651 C 375.22804,138.95651 378.72469,177.49614 378.72469,194.09422 C 378.72469,210.65953 375.22804,249.23189 343.53972,249.23189 z M 343.53972,127.57063 C 313.38119,127.54875 296.11651,151.81763 296.11651,194.09422 C 296.11651,236.34903 313.38119,260.60692 343.53972,260.60692 C 360.69512,260.60692 373.47969,253.13289 381.56573,238.4032 C 389.32385,224.35109 390.96292,206.55105 390.96292,194.09422 C 390.96292,174.07596 386.26435,127.57063 343.53972,127.57063"
       class="ps02"
       id="path6959" />
    <path
       style="fill:#9da0a3;fill-rule:nonzero;stroke:none;fill-opacity:1"
       d="M 241.69999,249.23189 C 223.77969,249.23189 209.68388,234.79736 209.68388,216.40723 C 209.68388,197.30679 223.4519,182.88315 241.69999,182.88315 C 250.0045,182.88315 257.76271,186.09563 263.55396,191.93068 C 269.89166,198.23556 273.49759,207.17386 273.49759,216.40723 C 273.49759,234.79736 259.51101,249.23189 241.69999,249.23189 z M 241.69999,171.49718 C 228.04124,171.49718 215.36586,178.2064 207.71702,189.28637 C 209.24672,165.17047 217.00493,138.95651 243.12051,138.95651 C 257.76271,138.95651 268.9083,148.49579 271.31217,163.25825 L 271.74924,165.56383 L 283.87828,165.56383 L 283.65968,162.50424 C 281.2558,140.96711 265.73938,127.54875 243.12051,127.54875 C 203.45547,127.54875 195.04164,167.028 195.04164,200.14774 C 195.04164,239.70355 211.21368,260.60692 241.69999,260.60692 C 266.83216,260.60692 285.73582,241.60483 285.73582,216.40723 C 285.73582,190.38999 267.26918,171.49718 241.69999,171.49718"
       class="ps02"
       id="path6961" />
    <path
       style="fill:#9da0a3;fill-rule:nonzero;stroke:none;fill-opacity:1"
       d="M 165.10171,189.41748 C 175.81014,184.48936 182.58485,173.78093 182.58485,161.17117 C 182.58485,152.25465 179.63454,144.80249 173.84328,138.96744 C 166.52223,131.58077 154.28391,127.34118 140.62512,127.34118 C 118.11552,127.34118 102.59919,140.72668 100.19522,162.30756 L 99.867435,165.34527 L 111.99638,165.34527 L 112.43345,163.06152 C 114.83742,148.26634 125.98301,138.71617 140.62512,138.71617 C 155.37664,138.71617 170.34662,146.43063 170.34662,161.17117 C 170.34662,167.46507 168.37976,172.57897 164.44609,176.31601 C 158.21768,182.38051 146.52579,183.88838 140.51584,183.88838 C 138.33052,183.88838 135.16165,183.94302 131.99282,183.95396 C 131.88355,187.03543 131.88355,192.96877 131.99282,195.9518 C 133.95968,195.9518 140.51584,195.96279 140.51584,195.96279 C 151.87998,196.06108 160.73088,198.4213 166.30363,203.62256 C 170.89297,207.89506 173.18766,213.86112 173.18766,221.36806 C 173.18766,239.50682 156.79716,249.00244 140.62512,249.00244 C 130.02601,249.00244 121.39362,245.77903 115.60232,239.73636 C 109.81097,233.7702 106.96993,225.1488 107.40709,214.87743 L 107.51628,212.00358 L 95.278048,212.00358 L 95.16877,214.64798 C 94.51315,228.26294 98.228362,239.67078 105.76802,247.63656 C 113.74469,255.97393 125.87373,260.38842 140.62512,260.38842 C 167.83342,260.38842 185.42589,245.07961 185.42589,221.36806 C 185.42589,206.36526 177.66768,194.49847 165.10171,189.41748"
       class="ps02"
       id="path6963" />
    <path
       style="fill:#94c93f;fill-rule:nonzero;stroke:none;fill-opacity:1"
       d="M 65.119521,257.4381 L 16.275796,190.94727 L 60.857967,130.52094 L 44.139722,130.52094 L 7.8619656,179.81257 L -28.415698,130.52094 L -45.024758,130.52094 L -0.551772,190.95816 L -49.286219,257.4381 L -32.567975,257.4381 L 7.8619656,202.40966 L 48.401184,257.4381 L 65.119521,257.4381"
       class="ps02"
       id="path6965" />
    <path
       style="fill:#94c93f;fill-rule:nonzero;stroke:none;fill-opacity:1"
       d="M -267.49859,257.4381 L -316.23308,190.94727 L -271.76015,130.52094 L -288.36925,130.52094 L -324.64687,179.81257 L -360.92453,130.52094 L -377.64287,130.52094 L -333.06061,190.95816 L -381.90433,257.4381 L -365.18609,257.4381 L -324.64687,202.40966 L -284.21697,257.4381 L -267.49859,257.4381"
       class="ps02"
       id="path6967" />
    <path
       style="fill:#94c93f;fill-rule:nonzero;stroke:none;fill-opacity:1"
       d="M -209.03912,244.18361 C -209.03912,244.18361 -240.50889,244.18361 -246.30024,244.18361 L -246.30024,198.00611 C -240.50889,198.00611 -209.03912,198.00611 -209.03912,198.00611 C -194.83403,198.00611 -178.00642,201.88515 -178.00642,220.08953 C -178.00642,241.02577 -197.45651,244.18361 -209.03912,244.18361 z M -246.30024,143.77534 C -240.50889,143.77534 -209.03912,143.77534 -209.03912,143.77534 C -198.98631,143.77534 -182.04942,146.31046 -182.04942,163.95752 C -182.04942,177.31035 -191.88372,185.24337 -209.03912,185.24337 C -209.03912,185.24337 -240.50889,185.24337 -246.30024,185.24337 L -246.30024,143.77534 z M -174.72832,195.75517 C -177.3508,193.47141 -180.19183,191.74489 -183.03287,190.45548 C -173.85414,185.45099 -167.84433,176.03183 -167.84433,165.05021 C -167.84433,156.95327 -170.79464,130.52094 -209.03912,130.52094 L -260.50533,130.52094 L -260.50533,185.2652 C -260.50533,185.2652 -277.11438,185.2652 -277.66073,185.2652 C -279.95542,188.14994 -284.98178,195.12138 -286.94873,197.9733 C -285.09106,197.9733 -260.50533,197.9733 -260.50533,197.9733 L -260.50533,257.4381 L -209.03912,257.4381 C -181.06601,257.4381 -163.69205,243.2439 -163.69205,220.3846 C -163.69205,210.39727 -167.51645,201.89613 -174.72832,195.75517"
       class="ps02"
       id="path6969" />
    <path
       style="fill:#94c93f;fill-rule:nonzero;stroke:none;fill-opacity:1"
       d="M -96.70943,246.80614 C -123.91773,246.80614 -142.93072,225.07233 -142.93072,193.90848 C -142.93072,162.77743 -123.91773,141.04358 -96.70943,141.04358 C -69.61049,141.04358 -50.706737,162.77743 -50.706737,193.90848 C -50.706737,225.07233 -69.61049,246.80614 -96.70943,246.80614 z M -96.70943,127.61428 C -132.44075,127.61428 -157.35436,154.86629 -157.35436,193.90848 C -157.35436,232.97249 -132.44075,260.23539 -96.70943,260.23539 C -61.196706,260.23539 -36.283094,232.97249 -36.283094,193.90848 C -36.283094,154.86629 -61.196706,127.61428 -96.70943,127.61428"
       class="ps02"
       id="path6971" />
  </g>
</svg>
