<?xml version="1.0" standalone="no"?>
<!DOCTYPE svg PUBLIC "-//W3C//DTD SVG 20010904//EN"
 "http://www.w3.org/TR/2001/REC-SVG-20010904/DTD/svg10.dtd">
<svg version="1.0" xmlns="http://www.w3.org/2000/svg"
 width="250.000000pt" height="250.000000pt" viewBox="0 0 250.000000 250.000000"
 preserveAspectRatio="xMidYMid meet">
<metadata>
Created by potrace 1.11, written by Peter Selinger 2001-2013
</metadata>
<g transform="translate(0.000000,250.000000) scale(0.100000,-0.100000)"
fill="#000000" stroke="none">
<path d="M509 1990 c-4 -3 -2 -42 6 -87 18 -105 35 -310 28 -346 -14 -70 -94
-84 -263 -46 -159 35 -218 16 -246 -79 -18 -57 -18 -100 0 -182 33 -159 100
-197 285 -160 178 35 198 27 209 -85 l7 -70 28 55 c28 54 80 99 150 128 38 16
157 15 198 -2 43 -18 89 -54 89 -69 0 -7 -40 -53 -90 -102 -49 -49 -90 -95
-90 -102 0 -8 39 -52 86 -99 l86 -86 -29 -30 c-38 -41 -85 -58 -153 -58 -82 0
-134 24 -216 100 -25 23 -64 101 -64 127 0 10 -5 25 -10 33 -9 13 -10 13 -10
0 0 -8 -7 -73 -16 -144 -14 -108 -14 -130 -3 -137 8 -5 95 -9 194 -10 99 -1
203 -3 230 -5 104 -7 165 49 167 155 1 49 -26 183 -43 215 -12 21 -13 157 -2
165 5 3 13 15 19 26 20 36 63 50 159 50 103 0 156 -19 180 -66 22 -41 19 -86
-16 -222 -34 -135 -34 -188 0 -255 38 -75 43 -76 340 -82 168 -3 269 -1 278 5
11 8 10 23 -3 90 -10 44 -20 107 -24 140 l-7 60 -3 -50 c-2 -27 -4 -70 -5 -95
-3 -85 0 -82 -44 -58 l-39 21 -47 -23 -47 -23 -40 23 -40 22 -43 -22 -43 -22
-40 22 -39 22 -43 -21 c-24 -12 -47 -21 -52 -21 -4 0 -8 71 -8 159 0 164 9
211 45 241 9 7 23 26 30 41 23 44 126 99 185 99 14 0 43 -6 65 -13 105 -32
181 -116 201 -222 7 -37 8 -35 15 38 8 93 24 136 56 148 32 12 99 12 142 -1
19 -5 69 -14 111 -20 143 -20 189 20 198 171 8 148 -40 229 -138 229 -27 0
-61 -5 -76 -10 -15 -6 -62 -14 -104 -17 -59 -4 -84 -2 -111 11 -43 20 -69 66
-69 121 0 43 32 269 48 342 5 23 6 46 3 52 -5 7 -84 11 -234 11 -220 1 -229 1
-270 -22 -67 -37 -79 -70 -72 -211 7 -138 -7 -185 -69 -232 -33 -25 -46 -28
-109 -29 -52 0 -83 5 -112 19 -57 28 -69 60 -65 170 7 220 6 242 -16 272 -36
49 -52 52 -318 55 -136 2 -252 1 -257 -2z m172 -617 c2 -81 -2 -118 -14 -125
-18 -11 -116 -9 -138 2 -14 8 -19 21 -19 50 0 47 30 73 82 70 52 -3 58 -1 58
18 0 10 3 22 7 25 16 16 23 4 24 -40z m449 6 c0 -15 6 -17 36 -12 21 3 45 0
60 -7 21 -12 24 -20 24 -67 0 -39 -4 -53 -14 -53 -17 0 -26 21 -26 60 0 25 -4
28 -37 32 -21 3 -39 5 -40 4 -1 -1 -4 -21 -7 -46 -2 -25 -5 -46 -5 -47 -1 -2
-8 -3 -16 -3 -12 0 -15 16 -15 83 0 46 3 87 7 90 10 10 33 -13 33 -34z m1268
-37 c2 -39 7 -72 12 -72 6 0 10 -7 10 -15 0 -18 -14 -19 -41 -5 -16 9 -19 22
-19 91 0 71 2 80 18 77 14 -3 18 -16 20 -76z m-2120 -11 c3 -83 -9 -109 -34
-73 -22 31 -116 32 -138 1 -20 -29 -36 -15 -35 29 2 92 40 123 144 119 l60 -2
3 -74z m1284 67 c30 -24 30 -54 2 -88 -25 -29 -26 -33 -11 -42 9 -5 17 -13 17
-18 0 -17 -26 -11 -64 15 -20 14 -46 25 -57 25 -14 0 -19 5 -17 18 2 13 16 18
58 22 42 4 56 9 58 23 3 15 -5 17 -62 17 l-65 0 -6 -44 c-4 -25 -5 -48 -2 -53
9 -14 -9 -36 -22 -29 -12 8 -15 123 -5 150 5 13 22 16 83 16 47 0 83 -5 93
-12z m518 -8 c6 -12 21 -20 36 -20 34 0 29 -32 -6 -40 -20 -5 -26 -13 -30 -45
-7 -54 -30 -59 -30 -6 0 35 -4 43 -25 51 -14 5 -25 14 -25 20 0 6 11 15 25 20
14 5 25 16 25 25 0 21 17 19 30 -5z m-1635 -32 c28 -12 38 -40 33 -84 -4 -36
-28 -45 -28 -9 0 47 -17 65 -60 65 l-40 0 0 -45 c0 -32 -4 -45 -14 -45 -26 0
-36 72 -16 111 12 22 82 27 125 7z m407 -5 c25 -23 25 -89 -1 -103 -30 -16
-107 -12 -125 6 -21 21 -20 36 4 57 11 9 20 26 20 37 0 17 7 20 42 20 24 0 49
-7 60 -17z m193 -3 c0 -11 -14 -16 -52 -18 -51 -3 -53 -4 -53 -32 0 -28 2 -29
55 -32 30 -2 55 -7 55 -13 0 -14 -105 -18 -130 -5 -30 16 -28 83 3 105 29 21
122 17 122 -5z m716 2 c26 -22 21 -48 -13 -61 -13 -5 -23 -17 -23 -27 0 -15
-9 -20 -38 -22 -21 -2 -45 2 -53 9 -20 17 -18 89 4 105 26 20 96 17 123 -4z
m195 -7 c20 -20 25 -34 22 -63 -4 -52 -31 -50 -38 3 -5 40 -5 40 -52 43 l-48
3 0 -46 c0 -39 -3 -46 -17 -43 -14 2 -19 15 -21 52 -5 72 -1 76 68 76 52 0 65
-4 86 -25z m352 9 c26 -18 30 -74 6 -98 -18 -18 -104 -22 -135 -6 -23 13 -25
43 -4 60 8 7 15 20 15 30 0 9 3 20 7 23 12 13 89 7 111 -9z"/>
<path d="M588 1333 c-35 -4 -38 -7 -38 -34 0 -30 1 -30 48 -27 45 3 47 4 47
32 0 32 -3 34 -57 29z"/>
<path d="M120 1350 c-17 -31 -4 -40 61 -40 59 0 59 0 59 30 0 30 -1 30 -55 30
-44 0 -56 -4 -65 -20z"/>
<path d="M820 1310 c0 -16 -7 -20 -35 -20 -19 0 -35 -5 -35 -11 0 -6 17 -9 43
-7 38 3 42 6 45 31 2 15 -1 27 -7 27 -6 0 -11 -9 -11 -20z"/>
<path d="M1650 1317 c0 -8 14 -11 45 -9 25 2 45 8 45 13 0 5 -20 9 -45 9 -29
0 -45 -4 -45 -13z"/>
<path d="M1665 1280 c3 -5 10 -10 16 -10 5 0 9 5 9 10 0 6 -7 10 -16 10 -8 0
-12 -4 -9 -10z"/>
<path d="M2270 1310 c0 -16 -7 -20 -35 -20 -19 0 -35 -4 -35 -10 0 -5 20 -10
44 -10 36 0 45 4 49 22 7 23 1 38 -14 38 -5 0 -9 -9 -9 -20z"/>
<path d="M1555 970 c-3 -6 1 -13 9 -16 24 -9 21 -54 -4 -54 -11 0 -20 -4 -20
-10 0 -5 16 -10 35 -10 29 0 37 5 45 26 11 29 0 58 -26 68 -22 9 -32 8 -39 -4z"/>
<path d="M1752 968 c-17 -17 -15 -29 6 -26 11 2 18 -4 20 -19 3 -18 -2 -23
-17 -23 -12 0 -21 -4 -21 -10 0 -5 16 -10 35 -10 24 0 37 6 45 19 14 28 13 38
-10 61 -23 23 -41 25 -58 8z"/>
<path d="M1120 890 c-11 -11 -20 -29 -20 -40 0 -20 33 -60 49 -60 24 0 61 21
61 35 0 21 8 19 34 -11 19 -23 26 -26 51 -17 37 12 50 33 41 67 -9 35 -47 53
-81 38 -14 -6 -25 -18 -25 -27 0 -8 -4 -15 -10 -15 -5 0 -10 4 -10 9 0 16 -31
41 -51 41 -10 0 -28 -9 -39 -20z"/>
</g>
</svg>
