<?xml version="1.0" encoding="UTF-8" standalone="no"?>
<!-- Created with Inkscape (http://www.inkscape.org/) -->
<svg xmlns:svg="http://www.w3.org/2000/svg" xmlns="http://www.w3.org/2000/svg" xmlns:xlink="http://www.w3.org/1999/xlink" version="1.0" width="800" height="1042.04" viewBox="0 0 791.683 1009.47" id="Layer_1" xml:space="preserve"><defs id="defs308"/>
































































<g transform="matrix(1.10087, 0, 0, 1.10087, -65.2582, -90.9567)" id="g2174"><g id="g3">
	<g id="g5">
		<g id="g7">
			<rect width="704.52002" height="704.51202" x="66.588997" y="80.057999" id="rect9"/>
		</g>
	</g>
</g><g id="g11">
	<defs id="defs13">
		<rect width="704.52002" height="704.51202" x="66.588997" y="80.057999" id="XMLID_1_"/>
	</defs>
	<clipPath id="XMLID_17_">
		<use id="use17" x="0" y="0" width="791.68298" height="1009.465" xlink:href="#XMLID_1_"/>
	</clipPath>
	<polyline id="polyline19" points="657.318,844.424 673.339,832.358 654.263,807.043 673.381,792.637 663.907,780.072 644.789,794.464 636.857,783.956 657.269,768.593 647.416,755.485 610.979,782.941 657.318,844.424" clip-path="url(#XMLID_17_)" style="fill: rgb(51, 51, 51);"/>
	<polyline id="polyline21" points="699.675,812.526 736.869,784.484 727.01,771.391 705.828,787.368 696.604,775.117 715.723,760.725 706.249,748.146 687.124,762.567 679.214,752.059 699.632,736.666 689.758,723.588 653.342,751.03 699.675,812.526" clip-path="url(#XMLID_17_)" style="fill: rgb(51, 51, 51);"/>
	<polyline id="polyline23" points="766.36,762.268 782.366,750.217 736.034,688.721 720.007,700.785 766.36,762.268" clip-path="url(#XMLID_17_)" style="fill: rgb(51, 51, 51);"/>
	<polyline id="polyline25" points="482.025,841.226 498.053,829.146 478.97,803.831 498.081,789.424 488.607,776.845 469.482,791.252 461.572,780.757 481.982,765.38 472.116,752.287 435.693,779.729 482.025,841.226" clip-path="url(#XMLID_17_)" style="fill: rgb(51, 51, 51);"/>
	<polyline id="polyline27" points="524.367,809.313 561.576,781.285 551.71,768.179 530.521,784.142 521.312,771.919 540.438,757.526 530.949,744.947 511.838,759.354 503.914,748.831 524.324,733.454 514.473,720.375 478.035,747.832 524.367,809.313" clip-path="url(#XMLID_17_)" style="fill: rgb(51, 51, 51);"/>
</g><polyline id="polyline29" points="591.054,759.055 607.081,746.989 560.733,685.508 544.721,697.573 591.054,759.055" style="fill: rgb(51, 51, 51);"/><path d="M 620.895,668.003 C 610.964,654.81 600.677,653.524 586.728,664.033 C 573.199,674.228 571.7,686.021 581.038,698.429 C 597.458,720.203 618.061,695.231 627.214,707.367 C 629.741,710.737 629.798,714.735 626.528,717.205 C 623.423,719.547 619.846,719.275 615.883,714.021 L 614.784,712.564 L 599.285,724.244 L 600.905,726.4 C 610.514,739.136 621.366,738.123 634.623,728.128 C 648.729,717.491 651.992,705.855 642.126,692.761 C 625.192,670.287 603.482,695.959 594.345,683.823 C 592.253,681.052 591.803,677.226 595.238,674.628 C 598.35,672.301 602.077,674.199 604.797,677.826 L 605.911,679.282 L 620.895,668.003" style="fill: rgb(51, 51, 51);" id="path31"/><polyline id="polyline33" points="662.108,705.512 678.136,693.446 659.053,668.131 678.164,653.725 668.69,641.16 649.579,655.553 641.655,645.058 662.065,629.681 652.199,616.573 615.776,644.03 662.108,705.512" style="fill: rgb(51, 51, 51);"/><g id="g35">
	<defs id="defs37">
		<rect width="704.52002" height="704.51202" x="66.588997" y="80.057999" id="XMLID_3_"/>
	</defs>
	<clipPath id="XMLID_18_">
		<use id="use41" x="0" y="0" width="791.68298" height="1009.465" xlink:href="#XMLID_3_"/>
	</clipPath>
	<polyline id="polyline43" points="704.465,673.614 741.666,645.572 731.808,632.479 710.626,648.456 701.395,636.205 720.521,621.813 711.047,609.234 691.921,623.655 684.012,613.146 704.422,597.754 694.556,584.676 658.118,612.118 704.465,673.614" clip-path="url(#XMLID_18_)" style="fill: rgb(51, 51, 51);"/>
	<polyline id="polyline45" points="771.15,623.355 787.164,611.305 740.831,549.809 724.804,561.873 771.15,623.355" clip-path="url(#XMLID_18_)" style="fill: rgb(51, 51, 51);"/>
	<path d="M 305.933,770.021 C 296.003,756.828 285.715,755.542 271.766,766.066 C 258.238,776.246 256.752,788.054 266.09,800.448 C 282.51,822.236 303.113,797.263 312.266,809.4 C 314.793,812.755 314.85,816.767 311.58,819.238 C 308.475,821.579 304.898,821.294 300.936,816.053 L 299.836,814.582 L 284.323,826.262 L 285.944,828.418 C 295.553,841.168 306.404,840.14 319.662,830.16 C 333.783,819.508 337.046,807.871 327.18,794.793 C 310.232,772.319 288.536,797.977 279.384,785.84 C 277.307,783.085 276.842,779.244 280.291,776.646 C 283.39,774.318 287.13,776.217 289.85,779.844 L 290.964,781.315 L 305.933,770.021" style="fill: rgb(51, 51, 51);" clip-path="url(#XMLID_18_)" id="path47"/>
	<polyline id="polyline49" points="347.161,807.543 363.174,795.479 344.091,770.148 363.217,755.756 353.744,743.177 334.618,757.584 326.708,747.075 347.119,731.697 337.252,718.604 300.829,746.062 347.161,807.543" clip-path="url(#XMLID_18_)" style="fill: rgb(51, 51, 51);"/>
</g><polyline id="polyline51" points="389.518,775.632 426.719,747.589 416.846,734.511 395.664,750.474 386.448,738.237 405.559,723.83 396.085,711.266 376.974,725.672 369.05,715.163 389.46,699.786 379.594,686.693 343.17,714.136 389.518,775.632" style="fill: rgb(51, 51, 51);"/><polyline id="polyline53" points="456.189,725.387 472.217,713.308 425.87,651.825 409.856,663.905 456.189,725.387" style="fill: rgb(51, 51, 51);"/><path d="M 486.03,634.307 C 476.107,621.142 465.812,619.857 451.848,630.366 C 438.341,640.547 436.834,652.354 446.172,664.748 C 462.592,686.537 483.195,661.564 492.348,673.701 C 494.875,677.07 494.94,681.068 491.662,683.538 C 488.563,685.88 484.98,685.608 481.017,680.354 L 479.918,678.883 L 464.419,690.563 L 466.046,692.719 C 475.649,705.454 486.485,704.441 499.743,694.447 C 513.871,683.809 517.126,672.173 507.26,659.093 C 490.313,636.606 468.616,662.278 459.464,650.141 C 457.387,647.385 456.937,643.531 460.371,640.946 C 463.483,638.605 467.21,640.532 469.93,644.131 L 471.044,645.602 L 486.03,634.307" style="fill: rgb(51, 51, 51);" id="path55"/><polyline id="polyline57" points="527.252,671.844 543.271,659.765 524.196,634.464 543.3,620.043 533.826,607.478 514.716,621.885 506.791,611.376 527.201,595.983 517.335,582.905 480.919,610.348 527.252,671.844" style="fill: rgb(51, 51, 51);"/><polyline id="polyline59" points="569.607,639.932 606.802,611.904 596.929,598.811 575.762,614.773 566.538,602.537 585.656,588.146 576.183,575.566 557.064,589.973 549.154,579.464 569.558,564.087 559.691,550.993 523.254,578.45 569.607,639.932" style="fill: rgb(51, 51, 51);"/><polyline id="polyline61" points="636.279,589.688 652.3,577.607 605.967,516.126 589.939,528.191 636.279,589.688" style="fill: rgb(51, 51, 51);"/><path d="M 666.121,498.621 C 656.19,485.442 645.895,484.143 631.946,494.652 C 618.425,504.846 616.918,516.64 626.263,529.048 C 642.683,550.822 663.293,525.85 672.431,538 C 674.98,541.355 675.023,545.368 671.745,547.823 C 668.647,550.165 665.063,549.908 661.115,544.639 L 660.002,543.183 L 644.51,554.863 L 646.131,557.005 C 655.733,569.755 666.584,568.741 679.849,558.746 C 693.97,548.109 697.218,536.487 687.344,523.38 C 670.418,500.905 648.715,526.592 639.563,514.442 C 637.493,511.686 637.021,507.845 640.469,505.261 C 643.574,502.919 647.301,504.832 650.035,508.445 L 651.128,509.902 L 666.121,498.621" style="fill: rgb(51, 51, 51);" id="path63"/><g id="g65">
	<defs id="defs67">
		<rect width="704.52002" height="704.51202" x="66.588997" y="80.057999" id="XMLID_5_"/>
	</defs>
	<clipPath id="XMLID_19_">
		<use id="use71" x="0" y="0" width="791.68298" height="1009.465" xlink:href="#XMLID_5_"/>
	</clipPath>
	<polyline id="polyline73" points="707.349,536.13 723.354,524.064 704.279,498.75 723.391,484.343 713.91,471.778 694.806,486.171 686.881,475.676 707.292,460.299 697.433,447.206 661.002,474.648 707.349,536.13" clip-path="url(#XMLID_19_)" style="fill: rgb(51, 51, 51);"/>
	<polyline id="polyline75" points="749.69,504.232 786.886,476.204 777.033,463.098 755.845,479.074 746.635,466.838 765.746,452.432 756.272,439.867 737.147,454.273 729.237,443.765 749.647,428.373 739.774,415.294 703.358,442.736 749.69,504.232" clip-path="url(#XMLID_19_)" style="fill: rgb(51, 51, 51);"/>
	<polyline id="polyline77" points="100.806,857.874 116.826,845.794 70.494,784.327 54.467,796.378 100.806,857.874" clip-path="url(#XMLID_19_)" style="fill: rgb(51, 51, 51);"/>
	<path d="M 130.647,766.808 C 120.717,753.629 110.422,752.329 96.472,762.838 C 82.951,773.033 81.445,784.826 90.789,797.234 C 107.209,819.037 127.819,794.049 136.972,806.186 C 139.507,809.541 139.549,813.568 136.272,816.039 C 133.174,818.352 129.59,818.095 125.642,812.826 L 124.536,811.37 L 109.037,823.049 L 110.658,825.205 C 120.26,837.955 131.112,836.941 144.376,826.947 C 158.497,816.296 161.746,804.673 151.872,791.565 C 134.945,769.106 113.243,794.778 104.09,782.627 C 102.02,779.871 101.548,776.03 104.997,773.446 C 108.102,771.104 111.829,773.017 114.563,776.63 L 115.655,778.086 L 130.647,766.808" style="fill: rgb(51, 51, 51);" clip-path="url(#XMLID_19_)" id="path79"/>
	<polyline id="polyline81" points="171.875,804.33 187.881,792.266 168.806,766.937 187.932,752.529 178.451,739.965 159.333,754.371 151.408,743.862 171.819,728.485 161.959,715.392 125.529,742.849 171.875,804.33" clip-path="url(#XMLID_19_)" style="fill: rgb(51, 51, 51);"/>
</g><polyline id="polyline83" points="214.218,772.419 251.426,744.391 241.56,731.298 220.372,747.261 211.162,735.039 230.273,720.632 220.8,708.053 201.674,722.46 193.764,711.951 214.175,696.588 204.301,683.48 167.885,710.938 214.218,772.419" style="fill: rgb(51, 51, 51);"/><polyline id="polyline85" points="280.904,722.174 296.909,710.109 250.577,648.627 234.557,660.692 280.904,722.174" style="fill: rgb(51, 51, 51);"/><path d="M 310.73,631.108 C 300.8,617.929 290.505,616.629 276.563,627.153 C 263.035,637.333 261.542,649.141 270.888,661.535 C 287.307,683.323 307.911,658.35 317.063,670.487 C 319.59,673.842 319.633,677.854 316.371,680.325 C 313.272,682.666 309.689,682.381 305.726,677.14 L 304.634,675.669 L 289.121,687.349 L 290.742,689.505 C 300.351,702.255 311.196,701.228 324.46,691.247 C 338.581,680.595 341.83,668.958 331.97,655.88 C 315.029,633.406 293.333,659.064 284.181,646.928 C 282.103,644.172 281.632,640.331 285.087,637.733 C 288.186,635.406 291.912,637.304 294.647,640.931 L 295.746,642.402 L 310.73,631.108" style="fill: rgb(51, 51, 51);" id="path87"/><polyline id="polyline89" points="351.959,668.631 367.972,656.566 348.889,631.236 368.015,616.844 358.541,604.266 339.416,618.672 331.505,608.163 351.916,592.785 342.05,579.692 305.626,607.149 351.959,668.631" style="fill: rgb(51, 51, 51);"/><polyline id="polyline91" points="394.301,636.72 431.509,608.677 421.643,595.599 400.455,611.562 391.245,599.339 410.356,584.918 400.883,572.354 381.771,586.76 373.847,576.252 394.258,560.874 384.392,547.781 347.968,575.224 394.301,636.72" style="fill: rgb(51, 51, 51);"/><polyline id="polyline93" points="460.986,586.475 477,574.396 430.66,512.914 414.654,524.993 460.986,586.475" style="fill: rgb(51, 51, 51);"/><path d="M 490.828,495.395 C 480.883,482.23 470.61,480.946 456.646,491.454 C 443.131,501.649 441.625,513.443 450.97,525.836 C 467.39,547.625 487.993,522.652 497.146,534.789 C 499.672,538.158 499.73,542.156 496.454,544.626 C 493.355,546.968 489.778,546.696 485.816,541.442 L 484.716,539.957 L 469.217,551.651 L 470.823,553.807 C 480.447,566.542 491.284,565.529 504.541,555.535 C 518.662,544.897 521.925,533.275 512.059,520.182 C 495.111,497.694 473.415,523.366 464.263,511.229 C 462.186,508.473 461.729,504.632 465.169,502.034 C 468.268,499.693 472.009,501.62 474.729,505.219 L 475.842,506.704 L 490.828,495.395" style="fill: rgb(51, 51, 51);" id="path95"/><polyline id="polyline97" points="532.042,532.932 548.069,520.853 528.986,495.552 548.098,481.131 538.624,468.565 519.513,482.973 511.589,472.464 531.999,457.072 522.133,443.993 485.709,471.436 532.042,532.932" style="fill: rgb(51, 51, 51);"/><polyline id="polyline99" points="574.398,501.02 611.593,472.992 601.727,459.898 580.545,475.862 571.328,463.625 590.454,449.233 580.98,436.654 561.854,451.061 553.944,440.552 574.341,425.174 564.489,412.082 528.051,439.538 574.398,501.02" style="fill: rgb(51, 51, 51);"/><polyline id="polyline101" points="641.069,450.775 657.097,438.696 610.75,377.214 594.737,389.279 641.069,450.775" style="fill: rgb(51, 51, 51);"/><path d="M 670.911,359.709 C 660.987,346.53 650.693,345.231 636.743,355.74 C 623.222,365.935 621.716,377.728 631.054,390.136 C 647.474,411.925 668.077,386.938 677.23,399.089 C 679.757,402.444 679.814,406.456 676.544,408.912 C 673.445,411.254 669.861,410.996 665.914,405.728 L 664.8,404.272 L 649.301,415.951 L 650.929,418.093 C 660.532,430.843 671.368,429.83 684.64,419.835 C 698.768,409.198 702.009,397.575 692.143,384.468 C 675.209,361.994 653.499,387.666 644.362,375.53 C 642.27,372.774 641.82,368.933 645.268,366.335 C 648.352,364.008 652.1,365.921 654.813,369.534 L 655.926,370.99 L 670.911,359.709" style="fill: rgb(51, 51, 51);" id="path103"/><g id="g105">
	<defs id="defs107">
		<rect width="704.52002" height="704.51202" x="66.588997" y="80.057999" id="XMLID_7_"/>
	</defs>
	<clipPath id="XMLID_20_">
		<use id="use111" x="0" y="0" width="791.68298" height="1009.465" xlink:href="#XMLID_7_"/>
	</clipPath>
	<polyline id="polyline113" points="712.132,397.232 728.152,385.153 709.069,359.838 728.181,345.431 718.707,332.866 699.596,347.259 691.672,336.764 712.082,321.387 702.23,308.293 665.792,335.736 712.132,397.232" clip-path="url(#XMLID_20_)" style="fill: rgb(51, 51, 51);"/>
	<polyline id="polyline115" points="754.488,365.32 791.683,337.292 781.823,324.185 760.642,340.148 751.433,327.926 770.537,313.534 761.063,300.955 741.938,315.361 734.027,304.853 754.445,289.461 744.572,276.382 708.155,303.839 754.488,365.32" clip-path="url(#XMLID_20_)" style="fill: rgb(51, 51, 51);"/>
	<polyline id="polyline117" points="79.354,738.751 116.548,710.709 106.696,697.615 85.507,713.579 76.284,701.342 95.409,686.95 85.936,674.371 66.824,688.777 58.9,678.283 79.311,662.892 69.444,649.813 33.021,677.255 79.354,738.751" clip-path="url(#XMLID_20_)" style="fill: rgb(51, 51, 51);"/>
</g><polyline id="polyline119" points="146.04,688.492 162.052,676.427 115.72,614.945 99.692,627.011 146.04,688.492" style="fill: rgb(51, 51, 51);"/><path d="M 175.867,597.426 C 165.936,584.247 155.649,582.962 141.699,593.471 C 128.171,603.665 126.686,615.459 136.024,627.867 C 152.444,649.655 173.047,624.682 182.199,636.805 C 184.726,640.175 184.783,644.187 181.492,646.658 C 178.408,648.985 174.831,648.714 170.869,643.46 L 169.755,641.989 L 154.256,653.669 L 155.877,655.839 C 165.486,668.575 176.337,667.562 189.595,657.552 C 203.716,646.915 206.965,635.293 197.113,622.199 C 180.165,599.725 158.469,625.397 149.317,613.261 C 147.239,610.49 146.768,606.664 150.224,604.066 C 153.322,601.724 157.049,603.637 159.783,607.25 L 160.882,608.721 L 175.867,597.426" style="fill: rgb(51, 51, 51);" id="path121"/><polyline id="polyline123" points="217.095,634.949 233.107,622.884 214.025,597.568 233.15,583.147 223.677,570.598 204.551,584.989 196.641,574.481 217.052,559.104 207.186,546.011 170.748,573.453 217.095,634.949" style="fill: rgb(51, 51, 51);"/><polyline id="polyline125" points="259.437,603.037 296.652,575.01 286.779,561.931 265.598,577.879 256.381,565.657 275.492,551.25 266.019,538.672 246.907,553.078 238.983,542.584 259.394,527.206 249.527,514.113 213.104,541.556 259.437,603.037" style="fill: rgb(51, 51, 51);"/><polyline id="polyline127" points="326.123,552.807 342.15,540.728 295.803,479.246 279.79,491.311 326.123,552.807" style="fill: rgb(51, 51, 51);"/><path d="M 355.95,461.727 C 346.027,448.548 335.746,447.249 321.782,457.772 C 308.275,467.953 306.769,479.76 316.107,492.154 C 332.527,513.957 353.13,488.969 362.282,501.121 C 364.809,504.462 364.866,508.488 361.597,510.944 C 358.498,513.286 354.915,513.014 350.952,507.759 L 349.852,506.289 L 334.339,517.968 L 335.981,520.124 C 345.569,532.874 356.42,531.86 369.677,521.866 C 383.805,511.215 387.061,499.592 377.195,486.499 C 360.247,464.025 338.551,489.697 329.399,477.547 C 327.321,474.791 326.872,470.95 330.306,468.366 C 333.404,466.024 337.152,467.937 339.865,471.55 L 340.979,473.021 L 355.95,461.727" style="fill: rgb(51, 51, 51);" id="path129"/><polyline id="polyline131" points="397.185,499.264 413.205,487.185 394.129,461.855 413.233,447.462 403.76,434.884 384.648,449.29 376.724,438.781 397.135,423.404 387.269,410.325 350.845,437.768 397.185,499.264" style="fill: rgb(51, 51, 51);"/><polyline id="polyline133" points="439.541,467.338 476.735,439.31 466.862,426.217 445.681,442.18 436.471,429.958 455.59,415.551 446.116,402.986 426.99,417.378 419.081,406.87 439.477,391.492 429.625,378.399 393.194,405.842 439.541,467.338" style="fill: rgb(51, 51, 51);"/><polyline id="polyline135" points="506.206,417.093 522.232,405.028 475.886,343.532 459.873,355.611 506.206,417.093" style="fill: rgb(51, 51, 51);"/><path d="M 536.047,326.027 C 526.124,312.848 515.829,311.564 501.879,322.072 C 488.358,332.267 486.852,344.061 496.196,356.454 C 512.616,378.243 533.213,353.27 542.365,365.407 C 544.899,368.762 544.956,372.774 541.679,375.244 C 538.58,377.586 534.996,377.3 531.034,372.06 L 529.934,370.589 L 514.443,382.283 L 516.063,384.425 C 525.666,397.175 536.502,396.147 549.781,386.167 C 563.888,375.53 567.15,363.879 557.277,350.8 C 540.35,328.326 518.633,353.984 509.496,341.847 C 507.404,339.091 506.954,335.25 510.402,332.652 C 513.501,330.324 517.234,332.237 519.954,335.85 L 521.06,337.321 L 536.047,326.027" style="fill: rgb(51, 51, 51);" id="path137"/><polyline id="polyline139" points="577.268,363.55 593.288,351.485 574.212,326.17 593.316,311.763 583.843,299.184 564.739,313.591 556.814,303.096 577.225,287.705 567.352,274.611 530.936,302.068 577.268,363.55" style="fill: rgb(51, 51, 51);"/><polyline id="polyline141" points="619.624,331.652 656.818,303.596 646.967,290.517 625.778,306.48 616.554,294.244 635.68,279.837 626.199,267.272 607.081,281.665 599.171,271.17 619.581,255.793 609.708,242.714 573.291,270.157 619.624,331.652" style="fill: rgb(51, 51, 51);"/><polyline id="polyline143" points="686.31,281.394 702.315,269.329 655.983,207.833 639.963,219.912 686.31,281.394" style="fill: rgb(51, 51, 51);"/><g id="g145">
	<defs id="defs147">
		<rect width="704.52002" height="704.51202" x="66.588997" y="80.057999" id="XMLID_9_"/>
	</defs>
	<clipPath id="XMLID_21_">
		<use id="use151" x="0" y="0" width="791.68298" height="1009.465" xlink:href="#XMLID_9_"/>
	</clipPath>
	<path d="M 716.137,190.328 C 706.207,177.149 695.912,175.864 681.97,186.373 C 668.442,196.567 666.935,208.347 676.294,220.755 C 692.714,242.544 713.31,217.571 722.462,229.707 C 724.997,233.077 725.04,237.075 721.777,239.545 C 718.664,241.886 715.094,241.615 711.132,236.361 L 710.026,234.904 L 694.527,246.57 L 696.147,248.712 C 705.756,261.462 716.601,260.463 729.865,250.454 C 743.986,239.817 747.235,228.195 737.376,215.101 C 720.435,192.613 698.739,218.285 689.587,206.163 C 687.51,203.393 687.038,199.566 690.493,196.954 C 693.592,194.626 697.318,196.54 700.053,200.152 L 701.146,201.623 L 716.137,190.328" style="fill: rgb(51, 51, 51);" clip-path="url(#XMLID_21_)" id="path153"/>
	<polyline id="polyline155" points="757.365,227.851 773.378,215.771 754.296,190.47 773.421,176.049 763.947,163.47 744.822,177.891 736.912,167.383 757.308,152.005 747.449,138.912 711.019,166.354 757.365,227.851" clip-path="url(#XMLID_21_)" style="fill: rgb(51, 51, 51);"/>
	<polyline id="polyline157" points="84.151,599.839 121.345,571.797 111.494,558.703 90.305,574.667 81.081,562.444 100.207,548.038 90.726,535.459 71.607,549.88 63.697,539.356 84.108,523.979 74.235,510.9 37.818,538.343 84.151,599.839" clip-path="url(#XMLID_21_)" style="fill: rgb(51, 51, 51);"/>
</g><polyline id="polyline159" points="150.823,549.58 166.843,537.515 120.51,476.033 104.49,488.099 150.823,549.58" style="fill: rgb(51, 51, 51);"/><path d="M 180.664,458.514 C 170.733,445.335 160.439,444.051 146.496,454.559 C 132.968,464.754 131.461,476.547 140.821,488.955 C 157.241,510.743 177.837,485.757 186.975,497.893 C 189.524,501.263 189.567,505.275 186.29,507.746 C 183.191,510.073 179.622,509.802 175.66,504.548 L 174.553,503.077 L 159.054,514.757 L 160.675,516.927 C 170.284,529.663 181.129,528.65 194.393,518.655 C 208.514,508.004 211.762,496.382 201.889,483.288 C 184.962,460.814 163.267,486.486 154.115,474.35 C 152.037,471.579 151.566,467.753 155.022,465.155 C 158.12,462.813 161.847,464.726 164.581,468.339 L 165.681,469.81 L 180.664,458.514" style="fill: rgb(51, 51, 51);" id="path161"/><polyline id="polyline163" points="221.892,496.037 237.905,483.972 218.822,458.656 237.948,444.236 228.474,431.685 209.349,446.078 201.424,435.569 221.835,420.191 211.983,407.098 175.545,434.541 221.892,496.037" style="fill: rgb(51, 51, 51);"/><polyline id="polyline165" points="264.234,464.125 301.443,436.097 291.577,423.019 270.388,438.981 261.178,426.745 280.29,412.338 270.816,399.759 251.705,414.166 243.78,403.671 264.191,388.294 254.325,375.201 217.901,402.644 264.234,464.125" style="fill: rgb(51, 51, 51);"/><polyline id="polyline167" points="330.92,413.895 346.933,401.815 300.6,340.334 284.573,352.399 330.92,413.895" style="fill: rgb(51, 51, 51);"/><path d="M 360.747,322.814 C 350.816,309.635 340.529,308.336 326.58,318.859 C 313.051,329.039 311.566,340.847 320.904,353.241 C 337.324,375.044 357.927,350.057 367.079,362.208 C 369.606,365.549 369.663,369.575 366.394,372.031 C 363.289,374.373 359.712,374.101 355.749,368.847 L 354.65,367.376 L 339.137,379.056 L 340.758,381.212 C 350.367,393.962 361.211,392.949 374.476,382.954 C 388.597,372.302 391.845,360.68 381.993,347.587 C 365.045,325.113 343.349,350.785 334.197,338.635 C 332.119,335.893 331.648,332.038 335.104,329.454 C 338.202,327.113 341.943,329.026 344.663,332.638 L 345.763,334.109 L 360.747,322.814" style="fill: rgb(51, 51, 51);" id="path169"/><polyline id="polyline171" points="401.975,360.352 417.988,348.272 398.905,322.943 418.031,308.551 408.557,295.972 389.432,310.393 381.521,299.87 401.932,284.492 392.066,271.413 355.643,298.855 401.975,360.352" style="fill: rgb(51, 51, 51);"/><polyline id="polyline173" points="444.317,328.426 481.533,300.398 471.659,287.305 450.478,303.268 441.262,291.045 460.373,276.639 450.899,264.074 431.788,278.466 423.863,267.958 444.274,252.58 434.408,239.487 397.984,266.93 444.317,328.426" style="fill: rgb(51, 51, 51);"/><polyline id="polyline175" points="511.003,278.181 527.03,266.116 480.684,204.62 464.671,216.699 511.003,278.181" style="fill: rgb(51, 51, 51);"/><path d="M 540.845,187.115 C 530.907,173.936 520.627,172.651 506.677,183.16 C 493.156,193.34 491.65,205.148 500.988,217.541 C 517.408,239.33 538.01,214.357 547.163,226.494 C 549.69,229.849 549.755,233.861 546.478,236.331 C 543.379,238.673 539.795,238.387 535.833,233.147 L 534.733,231.677 L 519.234,243.371 L 520.862,245.513 C 530.464,258.263 541.3,257.235 554.558,247.255 C 568.686,236.618 571.942,224.967 562.076,211.888 C 545.128,189.414 523.432,215.072 514.28,202.935 C 512.202,200.18 511.753,196.339 515.186,193.74 C 518.285,191.412 522.025,193.311 524.746,196.938 L 525.859,198.409 L 540.845,187.115" style="fill: rgb(51, 51, 51);" id="path177"/><polyline id="polyline179" points="582.065,224.638 598.085,212.573 579.01,187.258 598.114,172.851 588.641,160.272 569.529,174.679 561.604,164.184 582.016,148.792 572.149,135.699 535.726,163.156 582.065,224.638" style="fill: rgb(51, 51, 51);"/><g id="g181">
	<defs id="defs183">
		<rect width="704.52002" height="704.51202" x="66.588997" y="80.057999" id="XMLID_11_"/>
	</defs>
	<clipPath id="XMLID_22_">
		<use id="use187" x="0" y="0" width="791.68298" height="1009.465" xlink:href="#XMLID_11_"/>
	</clipPath>
	<polyline id="polyline189" points="624.422,192.741 661.616,164.684 651.757,151.605 630.575,167.568 621.345,155.332 640.47,140.925 630.996,128.36 611.871,142.767 603.961,132.258 624.357,116.881 614.505,103.788 578.067,131.245 624.422,192.741" clip-path="url(#XMLID_22_)" style="fill: rgb(51, 51, 51);"/>
	<polyline id="polyline191" points="691.093,142.481 707.113,130.417 660.78,68.92 644.754,81 691.093,142.481" clip-path="url(#XMLID_22_)" style="fill: rgb(51, 51, 51);"/>
	<path d="M 720.928,51.416 C 711.004,38.237 700.71,36.952 686.76,47.461 C 673.239,57.656 671.733,69.435 681.077,81.857 C 697.49,103.631 718.107,78.659 727.245,90.795 C 729.794,94.165 729.837,98.163 726.56,100.633 C 723.461,102.974 719.877,102.703 715.929,97.449 L 714.816,95.992 L 699.317,107.658 L 700.945,109.814 C 710.547,122.55 721.398,121.551 734.656,111.542 C 748.784,100.919 752.032,89.282 742.159,76.189 C 725.232,53.701 703.529,79.373 694.377,67.237 C 692.307,64.481 691.836,60.654 695.284,58.042 C 698.382,55.715 702.116,57.628 704.85,61.24 L 705.942,62.711 L 720.928,51.416" style="fill: rgb(51, 51, 51);" clip-path="url(#XMLID_22_)" id="path193"/>
	<polyline id="polyline195" points="762.148,88.938 778.169,76.859 759.093,51.558 778.219,37.137 768.724,24.558 749.619,38.979 741.695,28.471 762.105,13.093 752.246,0 715.815,27.442 762.148,88.938" clip-path="url(#XMLID_22_)" style="fill: rgb(51, 51, 51);"/>
	<path d="M 45.8,424.846 C 35.869,411.667 25.582,410.368 11.633,420.877 C -1.896,431.071 -3.395,442.865 5.943,455.259 C 22.363,477.047 42.981,452.074 52.132,464.226 C 54.659,467.58 54.702,471.593 51.433,474.049 C 48.328,476.391 44.751,476.133 40.803,470.864 L 39.689,469.408 L 24.19,481.088 L 25.811,483.23 C 35.42,495.98 46.271,494.981 59.529,484.972 C 73.65,474.334 76.898,462.712 67.032,449.605 C 50.098,427.131 28.403,452.803 19.25,440.652 C 17.172,437.911 16.708,434.07 20.157,431.471 C 23.255,429.143 26.982,431.057 29.716,434.669 L 30.816,436.126 L 45.8,424.846" style="fill: rgb(51, 51, 51);" clip-path="url(#XMLID_22_)" id="path197"/>
	<polyline id="polyline199" points="87.028,462.354 103.041,450.29 83.958,424.975 103.083,410.568 93.61,397.989 74.484,412.396 66.56,401.901 86.971,386.523 77.119,373.431 40.681,400.873 87.028,462.354" clip-path="url(#XMLID_22_)" style="fill: rgb(51, 51, 51);"/>
</g><polyline id="polyline201" points="129.37,430.458 166.585,402.429 156.712,389.322 135.531,405.285 126.314,393.063 145.425,378.67 135.952,366.091 116.826,380.498 108.916,369.975 129.327,354.598 119.46,341.519 83.037,368.961 129.37,430.458" style="fill: rgb(51, 51, 51);"/><polyline id="polyline203" points="196.056,380.198 212.069,368.133 165.736,306.651 149.709,318.717 196.056,380.198" style="fill: rgb(51, 51, 51);"/><path d="M 225.883,289.146 C 215.96,275.953 205.665,274.668 191.716,285.177 C 178.195,295.372 176.702,307.165 186.04,319.573 C 202.46,341.347 223.063,316.375 232.216,328.511 C 234.743,331.881 234.786,335.893 231.53,338.363 C 228.432,340.69 224.848,340.419 220.885,335.165 L 219.772,333.708 L 204.273,345.388 L 205.9,347.544 C 215.502,360.294 226.354,359.267 239.611,349.272 C 253.739,338.635 256.98,326.998 247.129,313.905 C 230.181,291.446 208.485,317.103 199.333,304.967 C 197.255,302.197 196.791,298.37 200.24,295.772 C 203.338,293.445 207.065,295.344 209.799,298.97 L 210.899,300.427 L 225.883,289.146" style="fill: rgb(51, 51, 51);" id="path205"/><polyline id="polyline207" points="267.118,326.655 283.124,314.604 264.048,289.275 283.167,274.868 273.693,262.304 254.567,276.696 246.658,266.202 267.068,250.824 257.202,237.717 220.778,265.174 267.118,326.655" style="fill: rgb(51, 51, 51);"/><polyline id="polyline209" points="309.46,294.758 346.669,266.716 336.795,253.623 315.614,269.6 306.404,257.363 325.508,242.957 316.035,230.378 296.924,244.799 289,234.29 309.41,218.898 299.544,205.819 263.12,233.262 309.46,294.758" style="fill: rgb(51, 51, 51);"/><polyline id="polyline211" points="376.146,244.513 392.152,232.448 345.819,170.952 329.806,183.031 376.146,244.513" style="fill: rgb(51, 51, 51);"/><path d="M 405.987,153.433 C 396.042,140.254 385.762,138.97 371.798,149.478 C 358.291,159.659 356.784,171.481 366.13,183.874 C 382.55,205.662 403.146,180.69 412.298,192.826 C 414.825,196.181 414.889,200.194 411.612,202.664 C 408.514,205.005 404.93,204.72 400.968,199.48 L 399.868,198.009 L 384.376,209.674 L 385.982,211.844 C 395.599,224.58 406.436,223.566 419.693,213.572 C 433.821,202.921 437.084,191.298 427.211,178.219 C 410.27,155.731 388.567,181.403 379.415,169.266 C 377.338,166.496 376.888,162.67 380.322,160.071 C 383.421,157.729 387.169,159.642 389.888,163.255 L 390.994,164.725 L 405.987,153.433" style="fill: rgb(51, 51, 51);" id="path213"/><g id="g215">
	<defs id="defs217">
		<rect width="704.52002" height="704.51202" x="66.588997" y="80.057999" id="XMLID_13_"/>
	</defs>
	<clipPath id="XMLID_23_">
		<use id="use221" x="0" y="0" width="791.68298" height="1009.465" xlink:href="#XMLID_13_"/>
	</clipPath>
	<polyline id="polyline223" points="447.201,190.97 463.222,178.891 444.146,153.576 463.257,139.169 453.776,126.59 434.658,141.011 426.748,130.488 447.158,115.11 437.285,102.031 400.869,129.474 447.201,190.97" clip-path="url(#XMLID_23_)" style="fill: rgb(51, 51, 51);"/>
	<polyline id="polyline225" points="489.558,159.044 526.752,131.016 516.886,117.938 495.711,133.886 486.487,121.664 505.613,107.257 496.133,94.692 477.014,109.085 469.104,98.59 489.5,83.213 479.641,70.105 443.21,97.563 489.558,159.044" clip-path="url(#XMLID_23_)" style="fill: rgb(51, 51, 51);"/>
	<polyline id="polyline227" points="556.229,108.813 572.249,96.734 525.917,35.252 509.896,47.318 556.229,108.813" clip-path="url(#XMLID_23_)" style="fill: rgb(51, 51, 51);"/>
	<path d="M 586.07,17.733 C 576.139,4.568 565.845,3.269 551.895,13.778 C 538.374,23.958 536.868,35.766 546.212,48.16 C 562.632,69.949 583.242,44.976 592.38,57.127 C 594.929,60.468 594.972,64.494 591.695,66.95 C 588.596,69.292 585.012,69.02 581.064,63.766 L 579.958,62.295 L 564.46,73.989 L 566.081,76.131 C 575.69,88.881 586.534,87.854 599.799,77.873 C 613.92,67.236 617.168,55.585 607.295,42.506 C 590.368,20.032 568.658,45.704 559.521,33.554 C 557.429,30.812 556.972,26.957 560.42,24.373 C 563.511,22.032 567.252,23.945 569.972,27.557 L 571.085,29.028 L 586.07,17.733" style="fill: rgb(51, 51, 51);" clip-path="url(#XMLID_23_)" id="path229"/>
	<path d="M 50.597,285.92 C 40.666,272.755 30.372,271.456 16.43,281.965 C 2.901,292.159 1.395,303.953 10.74,316.347 C 27.16,338.15 47.778,313.163 56.915,325.313 C 59.442,328.668 59.499,332.681 56.223,335.137 C 53.125,337.478 49.541,337.221 45.593,331.953 L 44.487,330.496 L 28.988,342.176 L 30.609,344.318 C 40.218,357.068 51.062,356.069 64.327,346.06 C 78.448,335.423 81.696,323.801 71.823,310.693 C 54.896,288.219 33.186,313.891 24.048,301.74 C 21.971,298.999 21.5,295.158 24.955,292.559 C 28.053,290.231 31.78,292.145 34.5,295.757 L 35.614,297.214 L 50.597,285.92" style="fill: rgb(51, 51, 51);" clip-path="url(#XMLID_23_)" id="path231"/>
	<polyline id="polyline233" points="91.811,323.457 107.838,311.377 88.755,286.063 107.881,271.656 98.393,259.077 79.282,273.483 71.357,262.989 91.768,247.611 81.917,234.519 45.479,261.961 91.811,323.457" clip-path="url(#XMLID_23_)" style="fill: rgb(51, 51, 51);"/>
</g><polyline id="polyline235" points="134.167,291.545 171.362,263.518 161.51,250.41 140.321,266.373 131.097,254.151 150.223,239.758 140.75,227.18 121.624,241.586 113.714,231.063 134.125,215.7 124.258,202.607 87.82,230.063 134.167,291.545" style="fill: rgb(51, 51, 51);"/><polyline id="polyline237" points="200.853,241.286 216.866,229.221 170.526,167.754 154.506,179.805 200.853,241.286" style="fill: rgb(51, 51, 51);"/><path d="M 230.68,150.234 C 220.75,137.041 210.462,135.756 196.513,146.265 C 182.984,156.46 181.478,168.253 190.837,180.661 C 207.257,202.435 227.86,177.463 237.013,189.599 C 239.54,192.968 239.583,196.995 236.306,199.451 C 233.222,201.779 229.624,201.507 225.683,196.253 L 224.569,194.797 L 209.07,206.476 L 210.691,208.632 C 220.3,221.382 231.151,220.354 244.409,210.36 C 258.53,199.723 261.778,188.086 251.927,174.993 C 234.979,152.534 213.283,178.191 204.131,166.055 C 202.054,163.299 201.583,159.458 205.038,156.86 C 208.137,154.533 211.863,156.432 214.597,160.058 L 215.697,161.515 L 230.68,150.234" style="fill: rgb(51, 51, 51);" id="path239"/><g id="g241">
	<defs id="defs243">
		<rect width="704.52002" height="704.51202" x="66.588997" y="80.057999" id="XMLID_15_"/>
	</defs>
	<clipPath id="XMLID_24_">
		<use id="use247" x="0" y="0" width="791.68298" height="1009.465" xlink:href="#XMLID_15_"/>
	</clipPath>
	<polyline id="polyline249" points="271.908,187.743 287.921,175.692 268.838,150.363 287.964,135.957 278.491,123.392 259.365,137.784 251.455,127.29 271.866,111.912 262,98.805 225.562,126.262 271.908,187.743" clip-path="url(#XMLID_24_)" style="fill: rgb(51, 51, 51);"/>
	<polyline id="polyline251" points="314.25,155.846 351.459,127.804 341.593,114.71 320.411,130.688 311.195,118.451 330.306,104.045 320.833,91.466 301.721,105.887 293.797,95.378 314.208,79.986 304.341,66.907 267.917,94.35 314.25,155.846" clip-path="url(#XMLID_24_)" style="fill: rgb(51, 51, 51);"/>
	<polyline id="polyline253" points="380.937,105.587 396.949,93.536 350.617,32.04 334.604,44.119 380.937,105.587" clip-path="url(#XMLID_24_)" style="fill: rgb(51, 51, 51);"/>
	<path d="M 410.763,14.521 C 400.84,1.342 390.545,0.058 376.596,10.581 C 363.089,20.747 361.582,32.569 370.92,44.963 C 387.34,66.751 407.943,41.779 417.096,53.915 C 419.623,57.27 419.68,61.283 416.41,63.753 C 413.312,66.094 409.728,65.809 405.766,60.569 L 404.666,59.098 L 389.153,70.763 L 390.781,72.933 C 400.383,85.669 411.234,84.656 424.491,74.661 C 438.619,64.01 441.874,52.387 432.009,39.308 C 415.061,16.82 393.365,42.492 384.213,30.356 C 382.136,27.586 381.686,23.759 385.12,21.161 C 388.219,18.819 391.959,20.733 394.68,24.345 L 395.793,25.83 L 410.763,14.521" style="fill: rgb(51, 51, 51);" clip-path="url(#XMLID_24_)" id="path255"/>
	<polyline id="polyline257" points="65.989,207.618 82.002,195.539 35.669,134.058 19.642,146.137 65.989,207.618" clip-path="url(#XMLID_24_)" style="fill: rgb(51, 51, 51);"/>
	<path d="M 95.816,116.538 C 85.893,103.373 75.598,102.089 61.649,112.597 C 48.128,122.792 46.621,134.571 55.973,146.979 C 72.393,168.768 92.996,143.781 102.149,155.932 C 104.676,159.302 104.719,163.299 101.449,165.769 C 98.351,168.111 94.781,167.839 90.819,162.585 L 89.705,161.114 L 74.206,172.794 L 75.834,174.95 C 85.436,187.686 96.287,186.686 109.544,176.678 C 123.672,166.041 126.914,154.418 117.047,141.325 C 100.113,118.837 78.417,144.509 69.265,132.372 C 67.188,129.616 66.723,125.79 70.172,123.177 C 73.271,120.836 76.997,122.763 79.732,126.376 L 80.831,127.832 L 95.816,116.538" style="fill: rgb(51, 51, 51);" clip-path="url(#XMLID_24_)" id="path259"/>
	<polyline id="polyline261" points="137.051,154.075 153.057,141.996 133.975,116.695 153.1,102.274 143.626,89.695 124.501,104.116 116.577,93.607 137.001,78.23 127.135,65.137 90.697,92.58 137.051,154.075" clip-path="url(#XMLID_24_)" style="fill: rgb(51, 51, 51);"/>
	<polyline id="polyline263" points="179.393,122.164 216.602,94.136 206.729,81.042 185.547,97.006 176.337,84.769 195.442,70.377 185.968,57.798 166.857,72.205 158.933,61.696 179.343,46.318 169.477,33.225 133.053,60.682 179.393,122.164" clip-path="url(#XMLID_24_)" style="fill: rgb(51, 51, 51);"/>
</g><g id="g265">
	<g id="g267">
		<g id="g269">
			
				<rect width="704.52002" height="704.51202" x="66.588997" y="80.057999" style="fill: none; stroke: black; stroke-width: 14.6208; stroke-miterlimit: 3.864;" id="rect271"/>
			<polyline id="polyline273" points="238.184,271.142 238.184,200.679 533.27,200.679 533.27,268.515 375.511,680.854 256.295,680.854 413.719,271.142 238.184,271.142" style="fill: white;"/>
			<polyline id="polyline275" points="564.296,513.885 564.296,450.932 501.372,450.932 501.372,420.077 564.296,420.077 564.296,357.125 595.18,357.125 595.18,420.077 658.118,420.077 658.118,450.932 595.18,450.932 595.18,513.885 564.296,513.885" style="fill: white;"/>
			<rect width="704.52002" height="176.136" x="66.588997" y="826.01898" id="rect277"/>
			
				<rect width="704.52002" height="176.136" x="66.588997" y="826.01898" style="fill: none; stroke: black; stroke-width: 14.6208; stroke-miterlimit: 3.864;" id="rect279"/>
			<polyline id="polyline281" points="109.866,950.339 121.831,950.339 132.811,897.381 133.053,897.381 144.519,950.339 155.749,950.339 171.248,885.53 160.518,885.53 150.38,938.502 150.137,938.502 139.286,885.53 127.192,885.53 116.084,938.502 115.848,938.502 105.347,885.53 94.617,885.53 109.866,950.339" style="fill: white;"/>
			<polyline id="polyline283" points="188.967,950.339 200.925,950.339 211.904,897.381 212.154,897.381 223.62,950.339 234.85,950.339 250.349,885.53 239.611,885.53 229.481,938.502 229.231,938.502 218.373,885.53 206.293,885.53 195.192,938.502 194.949,938.502 184.448,885.53 173.718,885.53 188.967,950.339" style="fill: white;"/>
			<polyline id="polyline285" points="268.067,950.339 280.025,950.339 291.005,897.381 291.255,897.381 302.713,950.339 313.943,950.339 329.442,885.53 318.712,885.53 308.582,938.502 308.332,938.502 297.48,885.53 285.394,885.53 274.293,938.502 274.043,938.502 263.548,885.53 252.804,885.53 268.067,950.339" style="fill: white;"/>
			<rect width="11.229" height="12.822" x="335.20401" y="937.51703" style="fill: white;" id="rect287"/>
			<path d="M 362.182,971.628 L 372.427,971.628 L 372.427,942.972 L 372.662,942.972 C 374.989,948.526 380.486,952.038 386.333,952.038 C 403.31,952.038 407.693,931.477 407.693,916.728 C 407.693,897.495 401.832,883.831 386.333,883.831 C 379.258,883.831 373.525,888.672 372.176,893.512 L 371.933,893.512 L 371.933,885.531 L 362.181,885.531 L 362.181,971.628 M 371.813,917.941 C 371.813,903.177 373.641,892.541 385.006,892.541 C 394.523,892.541 396.964,902.45 396.964,916.729 C 396.964,933.406 394.523,943.343 385.006,943.343 C 374.004,943.343 371.813,930.521 371.813,917.941 z " style="fill: white; fill-rule: evenodd;" id="path289"/>
			<path d="M 461.658,919.141 L 461.658,915.03 C 461.658,901.123 459.83,883.832 439.819,883.832 C 419.665,883.832 416.496,902.579 416.496,918.77 C 416.496,941.03 423.206,952.039 439.205,952.039 C 457.009,952.039 461.164,935.947 461.164,929.051 L 450.912,929.051 C 450.912,933.892 449.57,944.058 439.818,944.058 C 427.239,944.058 427.239,929.051 427.239,919.142 L 461.658,919.142 M 427.604,911.159 L 427.604,908.746 C 427.604,904.863 428.817,891.812 439.569,891.812 C 448.6,891.812 450.913,900.393 450.913,907.661 L 450.913,911.159 L 427.604,911.159 L 427.604,911.159 z " style="fill: white; fill-rule: evenodd;" id="path291"/>
			<path d="M 515.943,885.53 L 506.191,885.53 L 506.191,893.74 L 505.948,893.74 C 504.599,888.672 498.866,883.831 491.792,883.831 C 475.2,883.831 470.432,900.394 470.432,917.941 C 470.432,926.522 471.646,950.338 490.7,950.338 C 497.161,950.338 503.258,947.082 505.464,941.643 L 505.699,941.643 L 505.699,950.11 C 505.699,954.579 506.192,964.617 493.007,964.617 C 487.645,964.617 483.005,962.318 482.512,956.392 L 472.26,956.392 C 473.974,972.598 489.715,972.598 493.742,972.598 C 506.928,972.598 515.944,965.573 515.944,946.226 L 515.944,885.53 M 493.141,892.541 C 504.121,892.541 506.313,905.349 506.313,917.941 C 506.313,931.234 504.122,941.643 493.006,941.643 C 482.761,941.643 481.176,928.45 481.176,917.941 C 481.176,902.45 483.604,892.541 493.141,892.541 z " style="fill: white; fill-rule: evenodd;" id="path293"/>
			<path d="M 530.015,875.607 L 540.259,875.607 L 540.259,863.999 L 530.015,863.999 L 530.015,875.607 z M 530.015,950.339 L 540.259,950.339 L 540.259,885.53 L 530.015,885.53 L 530.015,950.339 z " style="fill: white; fill-rule: evenodd;" id="path295"/>
			<rect width="11.23" height="12.822" x="556.59302" y="937.51703" style="fill: white;" id="rect297"/>
			<path d="M 584.179,875.607 L 594.431,875.607 L 594.431,863.999 L 584.179,863.999 L 584.179,875.607 z M 584.179,950.339 L 594.431,950.339 L 594.431,885.53 L 584.179,885.53 L 584.179,950.339 z " style="fill: white; fill-rule: evenodd;" id="path299"/>
			<path d="M 608.451,950.339 L 618.703,950.339 L 618.703,905.606 C 618.703,896.168 626.141,892.542 631.639,892.542 C 640.913,892.542 641.277,900.651 641.277,905.606 L 641.277,950.339 L 651.529,950.339 L 651.529,904.392 C 651.529,896.768 651.529,883.831 634.317,883.831 C 627.97,883.831 621.145,887.229 618.454,893.141 L 618.219,893.141 L 618.219,885.531 L 608.452,885.531 L 608.452,950.339" style="fill: white;" id="path301"/>
			<path d="M 668.02,950.339 L 678.265,950.339 L 678.265,893.512 L 689.509,893.512 L 689.509,885.531 L 678.265,885.531 L 678.265,877.907 C 678.265,873.437 680.478,871.738 684.861,871.738 L 689.631,871.738 L 689.631,863.043 L 682.185,863.043 C 672.29,863.043 668.021,868.112 668.021,877.907 L 668.021,885.531 L 658.498,885.531 L 658.498,893.512 L 668.021,893.512 L 668.021,950.339" style="fill: white;" id="path303"/>
			<path d="M 716.708,944.057 C 706.207,944.057 704.129,931.963 704.129,917.942 C 704.129,903.907 706.343,891.813 716.708,891.813 C 727.688,891.813 729.759,903.907 729.759,917.942 C 729.759,931.963 727.566,944.057 716.708,944.057 M 693.399,917.941 C 693.399,936.189 698.032,952.038 716.951,952.038 C 735.741,952.038 740.51,936.189 740.51,917.941 C 740.51,899.679 735.856,883.831 716.951,883.831 C 698.153,883.831 693.399,899.68 693.399,917.941 z " style="fill: white; fill-rule: evenodd;" id="path305"/>
		</g>
	</g>
</g></g>
</svg>